  0
SECTION
  2
HEADER
  9
$ACADVER
  1
AC1009
  9
$DWGCODEPAGE
  3
ansi_1251
  9
$INSBASE
 10
0.0
 20
0.0
 30
0.0
  9
$EXTMIN
 10
477.99
 20
1123.42
 30
195.0
  9
$EXTMAX
 10
526.6299999999999
 20
1194.28
 30
195.0
  9
$LIMMIN
 10
0.0
 20
0.0
  9
$LIMMAX
 10
420.0
 20
297.0
  9
$ORTHOMODE
 70
     0
  9
$REGENMODE
 70
     1
  9
$FILLMODE
 70
     1
  9
$QTEXTMODE
 70
     0
  9
$MIRRTEXT
 70
     0
  9
$DRAGMODE
 70
     2
  9
$LTSCALE
 40
1.0
  9
$OSMODE
 70
   511
  9
$ATTMODE
 70
     1
  9
$TEXTSIZE
 40
0.3
  9
$TRACEWID
 40
1.0
  9
$TEXTSTYLE
  7
STANDARD
  9
$CLAYER
  8
HEIGHTPTS
  9
$CELTYPE
  6
BYLAYER
  9
$CECOLOR
 62
   256
  9
$DIMSCALE
 40
1.0
  9
$DIMASZ
 40
2.5
  9
$DIMEXO
 40
0.625
  9
$DIMDLI
 40
3.75
  9
$DIMRND
 40
0.0
  9
$DIMDLE
 40
0.0
  9
$DIMEXE
 40
1.25
  9
$DIMTP
 40
0.0
  9
$DIMTM
 40
0.0
  9
$DIMTXT
 40
2.5
  9
$DIMCEN
 40
-2.5
  9
$DIMTSZ
 40
0.0
  9
$DIMTOL
 70
     0
  9
$DIMLIM
 70
     0
  9
$DIMTIH
 70
     0
  9
$DIMTOH
 70
     0
  9
$DIMSE1
 70
     0
  9
$DIMSE2
 70
     0
  9
$DIMTAD
 70
     1
  9
$DIMZIN
 70
     8
  9
$DIMBLK
  1

  9
$DIMASO
 70
     1
  9
$DIMSHO
 70
     1
  9
$DIMPOST
  1

  9
$DIMAPOST
  1

  9
$DIMALT
 70
     0
  9
$DIMALTD
 70
     3
  9
$DIMALTF
 40
0.03937007874016
  9
$DIMLFAC
 40
1.0
  9
$DIMTOFL
 70
     1
  9
$DIMTVP
 40
0.0
  9
$DIMTIX
 70
     0
  9
$DIMSOXD
 70
     0
  9
$DIMSAH
 70
     0
  9
$DIMBLK1
  1

  9
$DIMBLK2
  1

  9
$DIMSTYLE
  2
ISO-25
  9
$DIMCLRD
 70
     0
  9
$DIMCLRE
 70
     0
  9
$DIMCLRT
 70
     0
  9
$DIMTFAC
 40
1.0
  9
$DIMGAP
 40
0.625
  9
$LUNITS
 70
     2
  9
$LUPREC
 70
     3
  9
$SKETCHINC
 40
1.0
  9
$FILLETRAD
 40
10.0
  9
$AUNITS
 70
     0
  9
$AUPREC
 70
     0
  9
$MENU
  1
.
  9
$ELEVATION
 40
0.0
  9
$PELEVATION
 40
0.0
  9
$THICKNESS
 40
0.0
  9
$LIMCHECK
 70
     0
  9
$CHAMFERA
 40
10.0
  9
$CHAMFERB
 40
10.0
  9
$SKPOLY
 70
     0
  9
$TDCREATE
 40
2455022.762359514
  9
$TDUPDATE
 40
2458485.000242674
  9
$TDINDWG
 40
0.000000081
  9
$TDUSRTIMER
 40
0.0002215741
  9
$USRTIMER
 70
     1
  9
$ANGBASE
 50
0.0
  9
$ANGDIR
 70
     0
  9
$PDMODE
 70
     0
  9
$PDSIZE
 40
0.0
  9
$PLINEWID
 40
0.0
  9
$COORDS
 70
     1
  9
$SPLFRAME
 70
     0
  9
$SPLINETYPE
 70
     6
  9
$SPLINESEGS
 70
     8
  9
$ATTDIA
 70
     0
  9
$ATTREQ
 70
     1
  9
$HANDLING
 70
     1
  9
$HANDSEED
  5
188
  9
$SURFTAB1
 70
     6
  9
$SURFTAB2
 70
     6
  9
$SURFTYPE
 70
     6
  9
$SURFU
 70
     6
  9
$SURFV
 70
     6
  9
$UCSNAME
  2

  9
$UCSORG
 10
0.0
 20
0.0
 30
0.0
  9
$UCSXDIR
 10
1.0
 20
0.0
 30
0.0
  9
$UCSYDIR
 10
0.0
 20
1.0
 30
0.0
  9
$PUCSNAME
  2

  9
$PUCSORG
 10
0.0
 20
0.0
 30
0.0
  9
$PUCSXDIR
 10
1.0
 20
0.0
 30
0.0
  9
$PUCSYDIR
 10
0.0
 20
1.0
 30
0.0
  9
$USERI1
 70
     0
  9
$USERI2
 70
     0
  9
$USERI3
 70
     0
  9
$USERI4
 70
     0
  9
$USERI5
 70
     0
  9
$USERR1
 40
0.0
  9
$USERR2
 40
0.0
  9
$USERR3
 40
0.0
  9
$USERR4
 40
0.0
  9
$USERR5
 40
0.0
  9
$WORLDVIEW
 70
     1
  9
$SHADEDGE
 70
     3
  9
$SHADEDIF
 70
    70
  9
$TILEMODE
 70
     1
  9
$MAXACTVP
 70
    64
  9
$PLIMCHECK
 70
     0
  9
$PEXTMIN
 10
1.000000000000000E+20
 20
1.000000000000000E+20
 30
1.000000000000000E+20
  9
$PEXTMAX
 10
-1.000000000000000E+20
 20
-1.000000000000000E+20
 30
-1.000000000000000E+20
  9
$PLIMMIN
 10
0.0
 20
0.0
  9
$PLIMMAX
 10
0.0
 20
0.0
  9
$UNITMODE
 70
     0
  9
$VISRETAIN
 70
     1
  9
$PLINEGEN
 70
     0
  9
$PSLTSCALE
 70
     1
  0
ENDSEC
  0
SECTION
  2
TABLES
  0
TABLE
  2
VPORT
 70
     1
  0
VPORT
  2
*ACTIVE
 70
     0
 10
0.0
 20
0.0
 11
1.0
 21
1.0
 12
636.4969158878503
 22
1158.85
 13
0.0
 23
0.0
 14
10.0
 24
10.0
 15
10.0
 25
10.0
 16
0.0
 26
0.0
 36
1.0
 17
-134.1869158878503
 27
0.0
 37
0.0
 40
72.2771999999999
 41
1.333333333333333
 42
50.0
 43
0.0
 44
0.0
 50
0.0
 51
0.0
 71
    16
 72
  1000
 73
     1
 74
     3
 75
     0
 76
     0
 77
     0
 78
     0
  0
ENDTAB
  0
TABLE
  2
LTYPE
 70
     1
  0
LTYPE
  2
CONTINUOUS
 70
     0
  3
Solid line
 72
    65
 73
     0
 40
0.0
  0
ENDTAB
  0
TABLE
  2
LAYER
 70
     4
  0
LAYER
  2
0
 70
     0
 62
     7
  6
CONTINUOUS
  0
LAYER
  2
POINTS
 70
     0
 62
     3
  6
CONTINUOUS
  0
LAYER
  2
NAMEPTS
 70
     0
 62
     1
  6
CONTINUOUS
  0
LAYER
  2
HEIGHTPTS
 70
     0
 62
     2
  6
CONTINUOUS
  0
ENDTAB
  0
TABLE
  2
STYLE
 70
     2
  0
STYLE
  2
STANDARD
 70
     0
 40
0.0
 41
1.0
 50
0.0
 71
     0
 42
0.3
  3
arial.ttf
  4

  0
STYLE
  2
ANNOTATIVE
 70
     0
 40
0.0
 41
1.0
 50
0.0
 71
     0
 42
2.5
  3
arial.ttf
  4

  0
ENDTAB
  0
TABLE
  2
VIEW
 70
     0
  0
ENDTAB
  0
TABLE
  2
UCS
 70
     0
  0
ENDTAB
  0
TABLE
  2
APPID
 70
     2
  0
APPID
  2
ACAD
 70
     0
  0
APPID
  2
ACADANNOTATIVE
 70
     0
  0
ENDTAB
  0
TABLE
  2
DIMSTYLE
 70
     2
  0
DIMSTYLE
  2
ISO-25
 70
     0
  3

  4

  5

  6

  7

 40
1.0
 41
2.5
 42
0.625
 43
3.75
 44
1.25
 45
0.0
 46
0.0
 47
0.0
 48
0.0
140
2.5
141
-2.5
142
0.0
143
0.03937007874016
144
1.0
145
0.0
146
1.0
147
0.625
 71
     0
 72
     0
 73
     0
 74
     0
 75
     0
 76
     0
 77
     1
 78
     8
170
     0
171
     3
172
     1
173
     0
174
     0
175
     0
176
     0
177
     0
178
     0
  0
DIMSTYLE
  2
ANNOTATIVE
 70
     0
  3

  4

  5

  6

  7

 40
0.0
 41
2.5
 42
0.625
 43
3.75
 44
1.25
 45
0.0
 46
0.0
 47
0.0
 48
0.0
140
2.5
141
-2.5
142
0.0
143
0.03937007874016
144
1.0
145
0.0
146
1.0
147
0.625
 71
     0
 72
     0
 73
     0
 74
     0
 75
     0
 76
     0
 77
     1
 78
     8
170
     0
171
     3
172
     1
173
     0
174
     0
175
     0
176
     0
177
     0
178
     0
  0
ENDTAB
  0
ENDSEC
  0
SECTION
  2
BLOCKS
  0
BLOCK
  8
0
  2
$MODEL_SPACE
 70
     0
 10
0.0
 20
0.0
 30
0.0
  3
$MODEL_SPACE
  1

  0
ENDBLK
  5
21
  8
0
  0
BLOCK
 67
     1
  8
0
  2
$PAPER_SPACE
 70
     0
 10
0.0
 20
0.0
 30
0.0
  3
$PAPER_SPACE
  1

  0
ENDBLK
  5
1D
 67
     1
  8
0
  0
ENDSEC
  0
SECTION
  2
ENTITIES
  0
POINT
  5
C2
  8
POINTS
 10
480.03
 20
1183.81
 30
195.0
  0
POINT
  5
C3
  8
POINTS
 10
490.36
 20
1193.98
 30
195.0
  0
POINT
  5
C4
  8
POINTS
 10
504.9299999999999
 20
1179.83
 30
195.0
  0
POINT
  5
C5
  8
POINTS
 10
504.24
 20
1178.56
 30
195.0
  0
POINT
  5
C6
  8
POINTS
 10
514.43
 20
1168.22
 30
195.0
  0
POINT
  5
C7
  8
POINTS
 10
514.12
 20
1163.25
 30
195.0
  0
POINT
  5
C8
  8
POINTS
 10
520.8199999999999
 20
1156.38
 30
195.0
  0
POINT
  5
C9
  8
POINTS
 10
518.37
 20
1153.97
 30
195.0
  0
POINT
  5
CA
  8
POINTS
 10
510.42
 20
1162.03
 30
195.0
  0
POINT
  5
CB
  8
POINTS
 10
496.34
 20
1148.13
 30
195.0
  0
POINT
  5
CC
  8
POINTS
 10
477.99
 20
1165.44
 30
195.0
  0
POINT
  5
CD
  8
POINTS
 10
480.02
 20
1168.1
 30
195.0
  0
POINT
  5
CE
  8
POINTS
 10
487.64
 20
1165.48
 30
195.0
  0
POINT
  5
CF
  8
POINTS
 10
492.28
 20
1160.77
 30
195.0
  0
POINT
  5
D0
  8
POINTS
 10
491.28
 20
1159.79
 30
195.0
  0
POINT
  5
D1
  8
POINTS
 10
496.27
 20
1154.72
 30
195.0
  0
POINT
  5
D2
  8
POINTS
 10
507.4
 20
1165.68
 30
195.0
  0
POINT
  5
D3
  8
POINTS
 10
502.42
 20
1170.75
 30
195.0
  0
POINT
  5
D4
  8
POINTS
 10
501.42
 20
1169.76
 30
195.0
  0
POINT
  5
D5
  8
POINTS
 10
497.39
 20
1173.86
 30
195.0
  0
POINT
  5
D6
  8
POINTS
 10
486.13
 20
1177.61
 30
195.0
  0
POINT
  5
D7
  8
POINTS
 10
524.93
 20
1130.91
 30
195.0
  0
POINT
  5
D8
  8
POINTS
 10
515.39
 20
1140.91
 30
195.0
  0
POINT
  5
D9
  8
POINTS
 10
505.47
 20
1131.33
 30
195.0
  0
POINT
  5
DA
  8
POINTS
 10
509.11
 20
1127.44
 30
195.0
  0
POINT
  5
DB
  8
POINTS
 10
510.88
 20
1126.28
 30
195.0
  0
POINT
  5
DC
  8
POINTS
 10
517.3199999999999
 20
1123.72
 30
195.0
  0
TEXT
  5
E0
  8
NAMEPTS
 10
480.03
 20
1183.81
 30
195.0
 40
0.3
  1
 t01
  0
TEXT
  5
E1
  8
NAMEPTS
 10
490.36
 20
1193.98
 30
195.0
 40
0.3
  1
 t02
  0
TEXT
  5
E2
  8
NAMEPTS
 10
504.9299999999999
 20
1179.83
 30
195.0
 40
0.3
  1
 t03
  0
TEXT
  5
E3
  8
NAMEPTS
 10
504.24
 20
1178.56
 30
195.0
 40
0.3
  1
 t04
  0
TEXT
  5
E4
  8
NAMEPTS
 10
514.43
 20
1168.22
 30
195.0
 40
0.3
  1
 t05
  0
TEXT
  5
E5
  8
NAMEPTS
 10
514.12
 20
1163.25
 30
195.0
 40
0.3
  1
 t06
  0
TEXT
  5
E6
  8
NAMEPTS
 10
520.8199999999999
 20
1156.38
 30
195.0
 40
0.3
  1
 t07
  0
TEXT
  5
E7
  8
NAMEPTS
 10
518.37
 20
1153.97
 30
195.0
 40
0.3
  1
 t08
  0
TEXT
  5
E8
  8
NAMEPTS
 10
510.42
 20
1162.03
 30
195.0
 40
0.3
  1
 t09
  0
TEXT
  5
E9
  8
NAMEPTS
 10
496.34
 20
1148.13
 30
195.0
 40
0.3
  1
 t10
  0
TEXT
  5
EA
  8
NAMEPTS
 10
477.99
 20
1165.44
 30
195.0
 40
0.3
  1
 t11
  0
TEXT
  5
EB
  8
NAMEPTS
 10
480.02
 20
1168.1
 30
195.0
 40
0.3
  1
 t12
  0
TEXT
  5
EC
  8
NAMEPTS
 10
487.64
 20
1165.48
 30
195.0
 40
0.3
  1
 t13
  0
TEXT
  5
ED
  8
NAMEPTS
 10
492.28
 20
1160.77
 30
195.0
 40
0.3
  1
 t14
  0
TEXT
  5
EE
  8
NAMEPTS
 10
491.28
 20
1159.79
 30
195.0
 40
0.3
  1
 t15
  0
TEXT
  5
EF
  8
NAMEPTS
 10
496.27
 20
1154.72
 30
195.0
 40
0.3
  1
 t16
  0
TEXT
  5
F0
  8
NAMEPTS
 10
507.4
 20
1165.68
 30
195.0
 40
0.3
  1
 t17
  0
TEXT
  5
F1
  8
NAMEPTS
 10
502.42
 20
1170.75
 30
195.0
 40
0.3
  1
 t18
  0
TEXT
  5
F2
  8
NAMEPTS
 10
501.42
 20
1169.76
 30
195.0
 40
0.3
  1
 t19
  0
TEXT
  5
F3
  8
NAMEPTS
 10
497.39
 20
1173.86
 30
195.0
 40
0.3
  1
 t20
  0
TEXT
  5
F4
  8
NAMEPTS
 10
486.13
 20
1177.61
 30
195.0
 40
0.3
  1
 t21
  0
TEXT
  5
F5
  8
NAMEPTS
 10
524.93
 20
1130.91
 30
195.0
 40
0.3
  1
 t22
  0
TEXT
  5
F6
  8
NAMEPTS
 10
515.39
 20
1140.91
 30
195.0
 40
0.3
  1
 t23
  0
TEXT
  5
F7
  8
NAMEPTS
 10
505.47
 20
1131.33
 30
195.0
 40
0.3
  1
 t24
  0
TEXT
  5
F8
  8
NAMEPTS
 10
509.11
 20
1127.44
 30
195.0
 40
0.3
  1
 t25
  0
TEXT
  5
F9
  8
NAMEPTS
 10
510.88
 20
1126.28
 30
195.0
 40
0.3
  1
 t26
  0
TEXT
  5
FA
  8
NAMEPTS
 10
517.3199999999999
 20
1123.72
 30
195.0
 40
0.3
  1
 t27
  0
TEXT
  5
FE
  8
HEIGHTPTS
 10
480.03
 20
1183.51
 30
195.0
 40
0.3
  1
 195.00
 11
480.03
 21
1183.81
 31
195.0
 73
     3
  0
TEXT
  5
FF
  8
HEIGHTPTS
 10
490.36
 20
1193.68
 30
195.0
 40
0.3
  1
 195.00
 11
490.36
 21
1193.98
 31
195.0
 73
     3
  0
TEXT
  5
100
  8
HEIGHTPTS
 10
504.9299999999999
 20
1179.53
 30
195.0
 40
0.3
  1
 195.00
 11
504.9299999999999
 21
1179.83
 31
195.0
 73
     3
  0
TEXT
  5
101
  8
HEIGHTPTS
 10
504.24
 20
1178.26
 30
195.0
 40
0.3
  1
 195.00
 11
504.24
 21
1178.56
 31
195.0
 73
     3
  0
TEXT
  5
102
  8
HEIGHTPTS
 10
514.43
 20
1167.92
 30
195.0
 40
0.3
  1
 195.00
 11
514.43
 21
1168.22
 31
195.0
 73
     3
  0
TEXT
  5
103
  8
HEIGHTPTS
 10
514.12
 20
1162.95
 30
195.0
 40
0.3
  1
 195.00
 11
514.12
 21
1163.25
 31
195.0
 73
     3
  0
TEXT
  5
104
  8
HEIGHTPTS
 10
520.8199999999999
 20
1156.08
 30
195.0
 40
0.3
  1
 195.00
 11
520.8199999999999
 21
1156.38
 31
195.0
 73
     3
  0
TEXT
  5
105
  8
HEIGHTPTS
 10
518.37
 20
1153.67
 30
195.0
 40
0.3
  1
 195.00
 11
518.37
 21
1153.97
 31
195.0
 73
     3
  0
TEXT
  5
106
  8
HEIGHTPTS
 10
510.42
 20
1161.73
 30
195.0
 40
0.3
  1
 195.00
 11
510.42
 21
1162.03
 31
195.0
 73
     3
  0
TEXT
  5
107
  8
HEIGHTPTS
 10
496.34
 20
1147.83
 30
195.0
 40
0.3
  1
 195.00
 11
496.34
 21
1148.13
 31
195.0
 73
     3
  0
TEXT
  5
108
  8
HEIGHTPTS
 10
477.99
 20
1165.14
 30
195.0
 40
0.3
  1
 195.00
 11
477.99
 21
1165.44
 31
195.0
 73
     3
  0
TEXT
  5
109
  8
HEIGHTPTS
 10
480.02
 20
1167.8
 30
195.0
 40
0.3
  1
 195.00
 11
480.02
 21
1168.1
 31
195.0
 73
     3
  0
TEXT
  5
10A
  8
HEIGHTPTS
 10
487.64
 20
1165.18
 30
195.0
 40
0.3
  1
 195.00
 11
487.64
 21
1165.48
 31
195.0
 73
     3
  0
TEXT
  5
10B
  8
HEIGHTPTS
 10
492.28
 20
1160.47
 30
195.0
 40
0.3
  1
 195.00
 11
492.28
 21
1160.77
 31
195.0
 73
     3
  0
TEXT
  5
10C
  8
HEIGHTPTS
 10
491.28
 20
1159.49
 30
195.0
 40
0.3
  1
 195.00
 11
491.28
 21
1159.79
 31
195.0
 73
     3
  0
TEXT
  5
10D
  8
HEIGHTPTS
 10
496.27
 20
1154.42
 30
195.0
 40
0.3
  1
 195.00
 11
496.27
 21
1154.72
 31
195.0
 73
     3
  0
TEXT
  5
10E
  8
HEIGHTPTS
 10
507.4
 20
1165.38
 30
195.0
 40
0.3
  1
 195.00
 11
507.4
 21
1165.68
 31
195.0
 73
     3
  0
TEXT
  5
10F
  8
HEIGHTPTS
 10
502.42
 20
1170.45
 30
195.0
 40
0.3
  1
 195.00
 11
502.42
 21
1170.75
 31
195.0
 73
     3
  0
TEXT
  5
110
  8
HEIGHTPTS
 10
501.42
 20
1169.46
 30
195.0
 40
0.3
  1
 195.00
 11
501.42
 21
1169.76
 31
195.0
 73
     3
  0
TEXT
  5
111
  8
HEIGHTPTS
 10
497.39
 20
1173.56
 30
195.0
 40
0.3
  1
 195.00
 11
497.39
 21
1173.86
 31
195.0
 73
     3
  0
TEXT
  5
112
  8
HEIGHTPTS
 10
486.13
 20
1177.31
 30
195.0
 40
0.3
  1
 195.00
 11
486.13
 21
1177.61
 31
195.0
 73
     3
  0
TEXT
  5
113
  8
HEIGHTPTS
 10
524.93
 20
1130.61
 30
195.0
 40
0.3
  1
 195.00
 11
524.93
 21
1130.91
 31
195.0
 73
     3
  0
TEXT
  5
114
  8
HEIGHTPTS
 10
515.39
 20
1140.61
 30
195.0
 40
0.3
  1
 195.00
 11
515.39
 21
1140.91
 31
195.0
 73
     3
  0
TEXT
  5
115
  8
HEIGHTPTS
 10
505.47
 20
1131.03
 30
195.0
 40
0.3
  1
 195.00
 11
505.47
 21
1131.33
 31
195.0
 73
     3
  0
TEXT
  5
116
  8
HEIGHTPTS
 10
509.11
 20
1127.14
 30
195.0
 40
0.3
  1
 195.00
 11
509.11
 21
1127.44
 31
195.0
 73
     3
  0
TEXT
  5
117
  8
HEIGHTPTS
 10
510.88
 20
1125.98
 30
195.0
 40
0.3
  1
 195.00
 11
510.88
 21
1126.28
 31
195.0
 73
     3
  0
TEXT
  5
118
  8
HEIGHTPTS
 10
517.3199999999999
 20
1123.42
 30
195.0
 40
0.3
  1
 195.00
 11
517.3199999999999
 21
1123.72
 31
195.0
 73
     3
  0
ENDSEC
  0
EOF
